# File created by Blade
# Date/Time:  Tue Jan 27 17:16:36 2015
#---------------------------------------------------------
:version 1.10
:name HOM
:units
  mass 1.0
  length 1.000000
  angle deg
:documentation
     Acclaim Skeleton File
:root
   axis xyz
   order TX TY TZ RX RY RZ
   position 0.000000 0.000000 0.000000
   orientation 0 0 0
:bonedata
   begin
      id 1
      name Spine_dum
      direction 0.000000 1.000000 0.000000
      length 7.539951
      axis 0.0 0.0 0.0 xyz
   end
   begin
      id 2
      name LeftUpLeg_dum
      direction 1.000000 0.000000 0.000000
      length 3.345476
      axis 0.0 0.0 0.0 xyz
   end
   begin
      id 3
      name RightUpLeg_dum
      direction -1.000000 0.000000 0.000000
      length 3.345476
      axis 0.0 0.0 0.0 xyz
   end
   begin
      id 4
      name Spine
      direction 0.000000 1.000000 0.000000
      length 0.000000
      axis 0.0 0.0 0.0 xyz
      dof rx ry rz
   end
   begin
      id 5
      name Spine_dum1
      direction 0.000000 1.000000 0.000000
      length 15.093809
      axis 0.0 0.0 0.0 xyz
   end
   begin
      id 6
      name Spine_dum2
      direction 0.000000 1.000000 0.000000
      length 9.738928
      axis 0.0 0.0 0.0 xyz
   end
   begin
      id 7
      name Spine_dum3
      direction 0.000000 1.000000 0.000000
      length 9.738928
      axis 0.0 0.0 0.0 xyz
   end
   begin
      id 8
      name Head
      direction 0.000000 1.000000 0.000000
      length 4.527550
      axis 0.0 0.0 0.0 xyz
      dof rx ry rz
   end
   begin
      id 9
      name LeftShoulder
      direction 1.000000 0.000000 0.000000
      length 7.084015
      axis 0.0 0.0 -90.0 xyz
      dof rx ry rz
   end
   begin
      id 10
      name LeftArm
      direction 1.000000 0.000000 0.000000
      length 10.259319
      axis 0.0 0.0 -90.0 xyz
      dof rx ry rz
   end
   begin
      id 11
      name LeftForeArm
      direction 1.000000 0.000000 0.000000
      length 9.896984
      axis 0.0 0.0 -90.0 xyz
      dof ry rz rx
   end
   begin
      id 12
      name LeftHand
      direction 0.000000 0.000000 0.000000
      length 0.000000
      axis 0.0 0.0 -90.0 xyz
      dof rx ry rz
   end
   begin
      id 13
      name LeftHand_dum1
      direction 0.000000 0.000000 0.000000
      length 0.000000
      axis 0.0 0.0 -90.0 xyz
   end
   begin
      id 14
      name LeftHand_dum2
      direction 1.000000 0.000000 0.000000
      length 3.937000
      axis 0.0 0.0 -90.0 xyz
   end
   begin
      id 15
      name LeftHandThumb1
      direction 0.000000 0.000000 1.000000
      length 3.937000
      axis 0.0 0.0 -90.0 xyz
      dof rx rz ry
   end
   begin
      id 16
      name RightShoulder
      direction -1.000000 0.000000 0.000000
      length 7.084015
      axis 0.0 0.0 90.0 xyz
      dof rx ry rz
   end
   begin
      id 17
      name RightArm
      direction -1.000000 0.000000 0.000000
      length 10.259319
      axis 0.0 0.0 90.0 xyz
      dof rx ry rz
   end
   begin
      id 18
      name RightForeArm
      direction -1.000000 0.000000 0.000000
      length 9.896984
      axis 0.0 0.0 90.0 xyz
      dof ry rz rx
   end
   begin
      id 19
      name RightHand
      direction 0.000000 0.000000 0.000000
      length 0.000000
      axis 0.0 0.0 90.0 xyz
      dof rx ry rz
   end
   begin
      id 20
      name RightHand_dum1
      direction 0.000000 0.000000 0.000000
      length 0.000000
      axis 0.0 0.0 90.0 xyz
   end
   begin
      id 21
      name RightHand_dum2
      direction -1.000000 0.000000 0.000000
      length 3.937000
      axis 0.0 0.0 90.0 xyz
   end
   begin
      id 22
      name RightHandThumb1
      direction 0.000000 0.000000 1.000000
      length 3.937000
      axis 0.0 0.0 90.0 xyz
      dof rx rz ry
   end
   begin
      id 23
      name LeftUpLeg
      direction 0.000000 -1.000000 0.000000
      length 19.114733
      axis 0.0 0.0 0.0 xyz
      dof rx ry rz
   end
   begin
      id 24
      name LeftLeg
      direction 0.000000 -1.000000 0.000000
      length 16.045604
      axis 0.0 0.0 0.0 xyz
      dof rx ry rz
   end
   begin
      id 25
      name LeftFoot
      direction 0.000000 -0.258819 0.965926
      length 5.543155
      axis 15.0 0.0 0.0 xyz
      dof rx ry rz
   end
   begin
      id 26
      name LeftToeBase
      direction 0.000000 0.000000 1.000000
      length 2.952750
      axis 0.0 0.0 0.0 xyz
      dof rx ry rz
   end
   begin
      id 27
      name RightUpLeg
      direction 0.000000 -1.000000 0.000000
      length 19.114733
      axis 0.0 0.0 0.0 xyz
      dof rx ry rz
   end
   begin
      id 28
      name RightLeg
      direction 0.000000 -1.000000 0.000000
      length 16.045604
      axis 0.0 0.0 0.0 xyz
      dof rx ry rz
   end
   begin
      id 29
      name RightFoot
      direction 0.000000 -0.258819 0.965926
      length 5.543155
      axis 15.0 0.0 0.0 xyz
      dof rx ry rz
   end
   begin
      id 30
      name RightToeBase
      direction 0.000000 0.000000 1.000000
      length 2.952750
      axis 0.0 0.0 0.0 xyz
      dof rx ry rz
   end
:hierarchy
   begin
      root Spine_dum LeftUpLeg_dum RightUpLeg_dum
      Spine_dum Spine
      LeftUpLeg_dum LeftUpLeg
      RightUpLeg_dum RightUpLeg
      Spine Spine_dum1 Spine_dum2 Spine_dum3
      Spine_dum1 Head
      Spine_dum2 LeftShoulder
      Spine_dum3 RightShoulder
      LeftShoulder LeftArm
      LeftArm LeftForeArm
      LeftForeArm LeftHand
      LeftHand LeftHand_dum1 LeftHand_dum2
      LeftHand_dum1 LeftHandThumb1
      RightShoulder RightArm
      RightArm RightForeArm
      RightForeArm RightHand
      RightHand RightHand_dum1 RightHand_dum2
      RightHand_dum1 RightHandThumb1
      LeftUpLeg LeftLeg
      LeftLeg LeftFoot
      LeftFoot LeftToeBase
      RightUpLeg RightLeg
      RightLeg RightFoot
      RightFoot RightToeBase
   end

# File created by Blade
# Date/Time:  Tue Jan 27 17:16:27 2015
# Frame Rate: 120.000 fps
#------------------------------------------------------
:FULLY-SPECIFIED
:DEGREES
365
root -2.692714 37.107429 1.069841 -6.551049 -53.043519 7.919530
Spine 3.963082 21.095931 -8.696148
Head 1.531016 13.475097 4.145803
LeftShoulder -7.923305 -8.316700 13.884743
LeftArm -27.200447 -24.988149 -22.794751
LeftForeArm 4.425384 -0.000000 58.103633
LeftHand -16.829221 -0.000000 52.742172
LeftHandThumb1 -26.253704 0.000000 33.147579
RightShoulder -5.092489 -21.861626 0.280353
RightArm 15.402394 -25.644252 63.322667
RightForeArm -165.613531 -0.000000 28.277281
RightHand 1.015899 -0.000000 6.240397
RightHandThumb1 -24.326973 -0.000000 -32.862282
LeftUpLeg -72.846612 3.664964 2.397592
LeftLeg 111.978589 -0.000000 -0.000000
LeftFoot -5.389990 -8.429950 -21.469955
LeftToeBase 13.628731 -0.000000 -0.000000
RightUpLeg -8.314538 0.136803 -0.199173
RightLeg 21.698561 -0.000000 -0.000000
RightFoot -13.594356 20.313936 -1.697853
RightToeBase 7.475442 -0.000000 -0.000000
366
root -2.697314 37.105605 1.067648 -6.552963 -53.060405 7.902383
Spine 3.957590 21.094470 -8.713891
Head 1.506229 13.460380 4.180759
LeftShoulder -7.912564 -8.281425 13.871268
LeftArm -27.174319 -25.080639 -22.766643
LeftForeArm 4.613869 -0.000000 58.128909
LeftHand -16.954359 -0.000000 52.868439
LeftHandThumb1 -26.253704 0.000000 33.147579
RightShoulder -5.086821 -21.830944 0.289534
RightArm 15.443570 -25.604351 63.289606
RightForeArm -165.673346 -0.000000 28.235717
RightHand 1.003530 -0.000000 6.324955
RightHandThumb1 -24.326973 -0.000000 -32.862282
LeftUpLeg -72.848624 3.696333 2.375208
LeftLeg 111.897141 -0.000000 -0.000000
LeftFoot -5.395068 -8.318508 -20.883086
LeftToeBase 13.123917 -0.000000 -0.000000
RightUpLeg -8.294541 0.155208 -0.180715
RightLeg 21.693834 -0.000000 -0.000000
RightFoot -13.537258 20.339563 -1.632333
RightToeBase 7.301739 -0.000000 -0.000000
367
root -2.701211 37.104159 1.064777 -6.560113 -53.076663 7.892029
Spine 3.949580 21.076514 -8.740776
Head 1.490734 13.468028 4.215863
LeftShoulder -7.857706 -8.320913 13.869293
LeftArm -27.266798 -25.104640 -22.701720
LeftForeArm 4.364742 -0.000000 58.231128
LeftHand -16.986954 -0.000000 53.090968
LeftHandThumb1 -26.253704 0.000000 33.147579
RightShoulder -5.052689 -21.817032 0.300915
RightArm 15.474440 -25.547910 63.259169
RightForeArm -165.713459 -0.000000 28.215950
RightHand 1.013710 -0.000000 6.340648
RightHandThumb1 -24.326973 -0.000000 -32.862282
LeftUpLeg -72.842821 3.726052 2.371910
LeftLeg 111.819065 -0.000000 -0.000000
LeftFoot -5.396163 -8.201225 -20.623226
LeftToeBase 12.793105 -0.000000 -0.000000
RightUpLeg -8.278141 0.182111 -0.165638
RightLeg 21.697974 -0.000000 -0.000000
RightFoot -13.607892 20.356857 -1.665873
RightToeBase 7.817460 -0.000000 -0.000000
368
root -2.705598 37.102487 1.063184 -6.578647 -53.091355 7.885426
Spine 3.956380 21.061964 -8.759899
Head 1.456738 13.461261 4.239390
LeftShoulder -7.835540 -8.319845 13.868859
LeftArm -27.315288 -25.183414 -22.657771
LeftForeArm 4.397610 -0.000000 58.303678
LeftHand -17.022074 -0.000000 53.074415
LeftHandThumb1 -26.253704 0.000000 33.147579
RightShoulder -5.041161 -21.790256 0.303094
RightArm 15.512085 -25.514765 63.245702
RightForeArm -165.754767 -0.000000 28.164130
RightHand 1.011805 -0.000000 6.297008
RightHandThumb1 -24.326973 -0.000000 -32.862282
LeftUpLeg -72.825494 3.750804 2.375165
LeftLeg 111.760779 -0.000000 -0.000000
LeftFoot -5.398949 -8.196364 -20.725706
LeftToeBase 12.789921 -0.000000 -0.000000
RightUpLeg -8.254772 0.180487 -0.153494
RightLeg 21.703773 -0.000000 -0.000000
RightFoot -13.624001 20.352967 -1.689624
RightToeBase 7.864032 -0.000000 -0.000000
369
root -2.710609 37.101437 1.060855 -6.588795 -53.101879 7.873662
Spine 3.955641 21.039374 -8.784434
Head 1.420462 13.473181 4.262772
LeftShoulder -7.830432 -8.290965 13.879929
LeftArm -27.355355 -25.282500 -22.630008
LeftForeArm 4.381488 -0.000000 58.384269
LeftHand -16.961372 -0.000000 52.936173
LeftHandThumb1 -26.253704 0.000000 33.147579
RightShoulder -5.031171 -21.764216 0.317894
RightArm 15.537327 -25.476135 63.238301
RightForeArm -165.792790 -0.000000 28.119861
RightHand 1.013169 -0.000000 6.268001
RightHandThumb1 -24.326973 -0.000000 -32.862282
LeftUpLeg -72.809156 3.774805 2.381536
LeftLeg 111.710674 -0.000000 -0.000000
LeftFoot -5.378021 -8.165217 -20.706500
LeftToeBase 12.673930 -0.000000 -0.000000
RightUpLeg -8.230207 0.162788 -0.137865
RightLeg 21.697139 -0.000000 -0.000000
RightFoot -13.630073 20.346147 -1.783132
RightToeBase 7.707789 -0.000000 -0.000000
370
root -2.715487 37.099984 1.058831 -6.602087 -53.112228 7.859313
Spine 3.969767 21.001480 -8.799105
Head 1.377573 13.483136 4.272901
LeftShoulder -7.808248 -8.310808 13.875050
LeftArm -27.402144 -25.336899 -22.570949
LeftForeArm 4.513623 0.000000 58.401695
LeftHand -17.043913 -0.000000 53.019541
LeftHandThumb1 -26.253704 0.000000 33.147579
RightShoulder -5.031235 -21.755088 0.330321
RightArm 15.599737 -25.443306 63.207111
RightForeArm -165.966819 -0.000000 28.065605
RightHand 0.986174 -0.000000 6.175214
RightHandThumb1 -24.326973 -0.000000 -32.862282
LeftUpLeg -72.789048 3.796072 2.398777
LeftLeg 111.661386 -0.000000 -0.000000
LeftFoot -5.469349 -8.302080 -21.470708
LeftToeBase 13.713540 -0.000000 -0.000000
RightUpLeg -8.202998 0.136408 -0.123555
RightLeg 21.697354 -0.000000 -0.000000
RightFoot -13.560706 20.425534 -1.637735
RightToeBase 7.633898 -0.000000 -0.000000
371
root -2.720923 37.098856 1.056913 -6.613949 -53.126074 7.843727
Spine 3.980182 20.966087 -8.813738
Head 1.335492 13.494572 4.281664
LeftShoulder -7.835870 -8.263663 13.887641
LeftArm -27.366196 -25.432443 -22.593123
LeftForeArm 4.519369 -0.000000 58.441624
LeftHand -17.026004 -0.000000 53.101442
LeftHandThumb1 -26.253704 0.000000 33.147579
RightShoulder -5.032924 -21.733819 0.344364
RightArm 15.642878 -25.428526 63.186370
RightForeArm -166.135300 -0.000000 28.024023
RightHand 1.038594 -0.000000 6.154866
RightHandThumb1 -24.326973 -0.000000 -32.862282
LeftUpLeg -72.767239 3.827971 2.405798
LeftLeg 111.623952 -0.000000 -0.000000
LeftFoot -5.485104 -8.358993 -21.656835
LeftToeBase 14.033062 -0.000000 -0.000000
RightUpLeg -8.176016 0.118618 -0.105460
RightLeg 21.701967 -0.000000 -0.000000
RightFoot -13.628721 20.398006 -1.754173
RightToeBase 7.719785 -0.000000 -0.000000
372
root -2.725161 37.097571 1.054798 -6.624868 -53.145448 7.835356
Spine 3.985351 20.931341 -8.827933
Head 1.296609 13.523276 4.278713
LeftShoulder -7.819833 -8.262866 13.885064
LeftArm -27.424000 -25.496867 -22.542998
LeftForeArm 4.549343 -0.000000 58.470321
LeftHand -16.996050 0.000000 53.090134
LeftHandThumb1 -26.253704 0.000000 33.147579
RightShoulder -5.027769 -21.711608 0.345439
RightArm 15.655888 -25.415149 63.196488
RightForeArm -166.137721 -0.000000 27.992144
RightHand 0.978784 -0.000000 6.159274
RightHandThumb1 -24.326973 -0.000000 -32.862282
LeftUpLeg -72.744626 3.866192 2.402938
LeftLeg 111.585602 -0.000000 -0.000000
LeftFoot -5.372349 -8.177195 -20.968244
LeftToeBase 13.143092 -0.000000 -0.000000
RightUpLeg -8.164596 0.103414 -0.090792
RightLeg 21.717640 -0.000000 -0.000000
RightFoot -13.629043 20.403285 -1.776921
RightToeBase 7.698102 -0.000000 -0.000000
373
root -2.730475 37.096291 1.053231 -6.635199 -53.165523 7.823615
Spine 3.990046 20.907263 -8.835887
Head 1.267659 13.525120 4.273610
LeftShoulder -7.778036 -8.287121 13.891027
LeftArm -27.508822 -25.511669 -22.487103
LeftForeArm 4.595313 -0.000000 58.472585
LeftHand -16.954176 0.000000 53.112080
LeftHandThumb1 -26.253704 0.000000 33.147579
RightShoulder -5.039221 -21.682931 0.351441
RightArm 15.657999 -25.403758 63.218981
RightForeArm -166.220086 -0.000000 27.958782
RightHand 0.989134 -0.000000 6.178835
RightHandThumb1 -24.326973 -0.000000 -32.862282
LeftUpLeg -72.716571 3.904213 2.411701
LeftLeg 111.555325 -0.000000 -0.000000
LeftFoot -5.344118 -8.162535 -20.923540
LeftToeBase 13.098442 -0.000000 -0.000000
RightUpLeg -8.139603 0.094866 -0.074794
RightLeg 21.710739 -0.000000 -0.000000
RightFoot -13.618841 20.399611 -1.824405
RightToeBase 7.606085 -0.000000 -0.000000
374
root -2.733875 37.094983 1.051543 -6.639744 -53.181359 7.812056
Spine 3.995144 20.880723 -8.838739
Head 1.225779 13.532643 4.245259
LeftShoulder -7.749507 -8.299654 13.892387
LeftArm -27.568452 -25.536131 -22.451138
LeftForeArm 4.656316 -0.000000 58.496145
LeftHand -16.987210 -0.000000 53.093020
LeftHandThumb1 -26.253704 0.000000 33.147579
RightShoulder -5.050181 -21.689479 0.353663
RightArm 15.683319 -25.377290 63.230628
RightForeArm -166.343520 -0.000000 27.935015
RightHand 0.993691 -0.000000 6.168712
RightHandThumb1 -24.326973 -0.000000 -32.862282
LeftUpLeg -72.693583 3.929891 2.433480
LeftLeg 111.518928 -0.000000 -0.000000
LeftFoot -5.383592 -8.300619 -21.477562
LeftToeBase 13.810711 -0.000000 -0.000000
RightUpLeg -8.133384 0.074966 -0.059547
RightLeg 21.728938 -0.000000 -0.000000
RightFoot -13.634539 20.407131 -1.842792
RightToeBase 7.682403 -0.000000 -0.000000
